{
	"patcher" : 	{
		"fileversion" : 1,
		"appversion" : 		{
			"major" : 8,
			"minor" : 1,
			"revision" : 5,
			"architecture" : "x64",
			"modernui" : 1
		}
,
		"classnamespace" : "dsp.gen",
		"rect" : [ 511.0, 146.0, 723.0, 525.0 ],
		"bglocked" : 0,
		"openinpresentation" : 0,
		"default_fontsize" : 12.0,
		"default_fontface" : 0,
		"default_fontname" : "Arial",
		"gridonopen" : 1,
		"gridsize" : [ 15.0, 15.0 ],
		"gridsnaponopen" : 1,
		"objectsnaponopen" : 1,
		"statusbarvisible" : 2,
		"toolbarvisible" : 1,
		"lefttoolbarpinned" : 0,
		"toptoolbarpinned" : 0,
		"righttoolbarpinned" : 0,
		"bottomtoolbarpinned" : 0,
		"toolbars_unpinned_last_save" : 0,
		"tallnewobj" : 0,
		"boxanimatetime" : 200,
		"enablehscroll" : 1,
		"enablevscroll" : 1,
		"devicewidth" : 0.0,
		"description" : "",
		"digest" : "",
		"tags" : "",
		"style" : "",
		"subpatcher_template" : "",
		"assistshowspatchername" : 0,
		"boxes" : [ 			{
				"box" : 				{
					"id" : "obj-7",
					"maxclass" : "newobj",
					"numinlets" : 1,
					"numoutlets" : 0,
					"patching_rect" : [ 587.0, 489.0, 37.0, 22.0 ],
					"text" : "out 2"
				}

			}
, 			{
				"box" : 				{
					"id" : "obj-6",
					"maxclass" : "newobj",
					"numinlets" : 0,
					"numoutlets" : 1,
					"outlettype" : [ "" ],
					"patching_rect" : [ 587.0, 12.0, 127.0, 22.0 ],
					"text" : "in 2 @comment Y-dim"
				}

			}
, 			{
				"box" : 				{
					"code" : "xdim, ydim = 0;\r\n\r\nif (in1 > in2) { // if X is larger than Y.\r\n\tif (in1 > 320) {\r\n\t\tif (in1/3 > 320) {\r\n\t\t\tydim = (in2 / in1) * (in1/3); // Perserving aspect ratio.\r\n\t\t\txdim = in1/3;\t\r\n\t\t} else {\r\n\t\t\tydim = (in2/in1) * 320;\r\n\t\t\txdim = 320;\r\n\t\t}\r\n\t} else {\r\n\t\tydim = in2;\r\n\t\txdim = in1;\r\n\t}\r\n} else { // if Y is larger than X.\r\n\tif (in2 > 240) {\r\n\t\tif (in2/3 > 240) {\r\n\t\t\tydim = in2/3;\r\n\t\t\txdim = (in1/in2) * (in2/3); // Perserving aspect ratio.\r\n\t\t} else {\r\n\t\t\tydim = 240;\r\n\t\t\txdim = (in1/in2) * 240;\r\n\t\t}\r\n\t} else {\r\n\t\tydim = in2;\r\n\t\txdim = in1;\r\n\t}\r\n}\r\n\r\nout2 = ydim;\r\nout1 = xdim;",
					"fontface" : 0,
					"fontname" : "<Monospaced>",
					"fontsize" : 12.0,
					"id" : "obj-5",
					"maxclass" : "codebox",
					"numinlets" : 2,
					"numoutlets" : 2,
					"outlettype" : [ "", "" ],
					"patching_rect" : [ 24.0, 46.0, 582.0, 429.0 ]
				}

			}
, 			{
				"box" : 				{
					"id" : "obj-1",
					"maxclass" : "newobj",
					"numinlets" : 0,
					"numoutlets" : 1,
					"outlettype" : [ "" ],
					"patching_rect" : [ 24.0, 12.0, 130.0, 22.0 ],
					"text" : "in 1 @comment X-dim"
				}

			}
, 			{
				"box" : 				{
					"id" : "obj-4",
					"maxclass" : "newobj",
					"numinlets" : 1,
					"numoutlets" : 0,
					"patching_rect" : [ 24.0, 489.0, 35.0, 22.0 ],
					"text" : "out 1"
				}

			}
 ],
		"lines" : [ 			{
				"patchline" : 				{
					"destination" : [ "obj-5", 0 ],
					"source" : [ "obj-1", 0 ]
				}

			}
, 			{
				"patchline" : 				{
					"destination" : [ "obj-4", 0 ],
					"source" : [ "obj-5", 0 ]
				}

			}
, 			{
				"patchline" : 				{
					"destination" : [ "obj-7", 0 ],
					"source" : [ "obj-5", 1 ]
				}

			}
, 			{
				"patchline" : 				{
					"destination" : [ "obj-5", 1 ],
					"source" : [ "obj-6", 0 ]
				}

			}
 ]
	}

}
